<svg width="90" height="60" viewBox="0 0 90 60" fill="none" xmlns="http://www.w3.org/2000/svg">
<path d="M41.5128 2.58815C78.5015 -8.96305 92.596 21.0103 89.613 36.1961C83.8012 35.9051 76.6525 34.1729 73.5677 33.2781C74.2179 31.5625 74.5739 29.7017 74.5739 27.7577C74.5739 19.1646 67.6181 12.1985 59.0377 12.1985C50.4573 12.1985 43.5015 19.1646 43.5015 27.7577C43.5015 29.5357 43.7992 31.244 44.3476 32.8354C40.0306 34.7268 30.5238 35.2842 26.2252 35.3248C23.7394 31.6404 21.7093 30.1384 21.005 29.848C21.6016 28.8522 24.2365 27.2755 25.4794 26.6116C23.1179 24.4541 17.152 20.6369 11.3104 21.7571C5.60096 22.8521 1.40862 22.1306 0 21.5082C0.994319 20.4294 3.30611 17.8985 4.59873 16.4048C5.89134 14.9111 8.36885 13.9568 9.44603 13.6663C8.23146 12.8923 6.82071 11.4306 6.3466 10.9393C6.28706 10.8777 6.24223 10.8312 6.21449 10.8034C5.9891 10.5777 2.77581 4.82868 1.2429 1.8413C4.79366 1.49717 5.91663 1.99874 6.75189 2.3718C6.82297 2.40355 6.892 2.43438 6.96023 2.46367C7.83026 2.83709 11.4347 4.45525 15.6605 8.43842C19.8669 12.4033 23.4576 13.9015 24.9616 14.529L24.9823 14.5377C26.1755 15.0355 27.8824 14.7451 28.5867 14.5377C35.0498 9.30974 42.3829 5.45104 45.6144 4.45525L41.5128 2.58815Z" fill="white"/>
<path d="M59.0377 43.317C64.7367 43.317 69.7189 40.244 72.4225 35.6623L72.461 35.6982C78.6755 37.6898 79.5455 37.9388 88.3701 38.9346C79.7941 57.3567 61.2749 60.3441 48.7216 59.9707C48.9081 59.5039 49.4933 59.0371 50.0625 58.5831C50.7074 58.0686 51.3317 57.5706 51.3317 57.1078C37.0135 55.0166 29.9539 44.5359 27.4681 37.9388C37.9571 37.9388 43.8177 36.2129 45.4664 35.3375C48.1232 40.0981 53.2051 43.317 59.0377 43.317Z" fill="white"/>
<path d="M65.5008 25.8906C67.4914 25.8906 69.1052 24.2745 69.1052 22.2809C69.1052 20.2873 67.4914 18.6711 65.5008 18.6711C63.5101 18.6711 61.8964 20.2873 61.8964 22.2809C61.8964 24.2745 63.5101 25.8906 65.5008 25.8906Z" fill="white"/>
</svg>
