<svg width="14" height="9" viewBox="0 0 14 9" fill="none" xmlns="http://www.w3.org/2000/svg">
<path d="M13.707 1.207C13.5195 1.01953 13.2652 0.914214 13 0.914214C12.7348 0.914214 12.4805 1.01953 12.293 1.207L7.70701 5.793C7.51688 5.97549 7.26355 6.07739 7.00001 6.07739C6.73647 6.07739 6.48314 5.97549 6.29301 5.793L1.70701 1.207C1.51841 1.02484 1.26581 0.924047 1.00361 0.926326C0.741413 0.928604 0.4906 1.03377 0.305192 1.21918C0.119784 1.40459 0.0146148 1.6554 0.0123364 1.9176C0.010058 2.1798 0.110853 2.4324 0.293011 2.621L4.87801 7.207C5.15659 7.48563 5.48733 7.70665 5.85134 7.85745C6.21535 8.00825 6.6055 8.08586 6.99951 8.08586C7.39352 8.08586 7.78367 8.00825 8.14768 7.85745C8.51169 7.70665 8.84243 7.48563 9.12101 7.207L13.707 2.621C13.8945 2.43347 13.9998 2.17916 13.9998 1.914C13.9998 1.64884 13.8945 1.39453 13.707 1.207Z" fill="#E0E0E0"/>
</svg>
