<svg width="16" height="16" viewBox="0 0 16 16" fill="none" xmlns="http://www.w3.org/2000/svg">
<path d="M15.2353 0.765348C14.7821 0.312813 14.1678 0.0586395 13.5273 0.0586395C12.8869 0.0586395 12.2726 0.312813 11.8193 0.765348L0.976677 11.608C0.666178 11.9168 0.419985 12.284 0.252342 12.6885C0.0846994 13.0931 -0.00106532 13.5268 9.98748e-06 13.9647V15.3333C9.98748e-06 15.5102 0.0702479 15.6797 0.195272 15.8048C0.320296 15.9298 0.489866 16 0.666677 16H2.03534C2.47319 16.0013 2.90692 15.9156 3.31145 15.7481C3.71597 15.5806 4.08325 15.3345 4.39201 15.024L15.2353 4.18068C15.6877 3.72748 15.9417 3.11333 15.9417 2.47302C15.9417 1.8327 15.6877 1.21855 15.2353 0.765348ZM3.44934 14.0813C3.07335 14.4548 2.56532 14.6651 2.03534 14.6667H1.33334V13.9647C1.33267 13.702 1.38411 13.4417 1.4847 13.199C1.58529 12.9563 1.73302 12.7359 1.91934 12.5507L10.148 4.32201L11.6813 5.85535L3.44934 14.0813ZM14.292 3.23801L12.6213 4.90935L11.088 3.37935L12.7593 1.70801C12.86 1.60755 12.9795 1.52791 13.111 1.47362C13.2424 1.41934 13.3833 1.39147 13.5255 1.39163C13.6678 1.39178 13.8086 1.41995 13.9399 1.47452C14.0712 1.52909 14.1905 1.609 14.291 1.70968C14.3915 1.81036 14.4711 1.92984 14.5254 2.0613C14.5797 2.19277 14.6076 2.33363 14.6074 2.47586C14.6072 2.61809 14.5791 2.75889 14.5245 2.89024C14.4699 3.02158 14.39 3.14089 14.2893 3.24135L14.292 3.23801Z" fill="#047884"/>
</svg>
