<svg width="20" height="20" viewBox="0 0 20 20" fill="none" xmlns="http://www.w3.org/2000/svg">
<path d="M9.99984 9.16666C9.77883 9.16666 9.56687 9.25445 9.41059 9.41073C9.25431 9.56702 9.16651 9.77898 9.16651 9.99999V13.3333C9.16651 13.5543 9.25431 13.7663 9.41059 13.9226C9.56687 14.0789 9.77883 14.1667 9.99984 14.1667C10.2209 14.1667 10.4328 14.0789 10.5891 13.9226C10.7454 13.7663 10.8332 13.5543 10.8332 13.3333V9.99999C10.8332 9.77898 10.7454 9.56702 10.5891 9.41073C10.4328 9.25445 10.2209 9.16666 9.99984 9.16666ZM10.3165 5.89999C10.1136 5.81664 9.88606 5.81664 9.68317 5.89999C9.58088 5.93965 9.48743 5.99912 9.40817 6.07499C9.33457 6.15599 9.27538 6.249 9.23317 6.34999C9.18652 6.44889 9.16369 6.55734 9.16651 6.66666C9.16587 6.77633 9.18689 6.88505 9.22837 6.98658C9.26984 7.08811 9.33094 7.18046 9.40817 7.25832C9.48918 7.33193 9.58219 7.39112 9.68317 7.43332C9.80942 7.48519 9.94648 7.50525 10.0823 7.49175C10.2181 7.47825 10.3485 7.43159 10.4621 7.35588C10.5757 7.28017 10.6689 7.17773 10.7336 7.05755C10.7983 6.93737 10.8325 6.80314 10.8332 6.66666C10.8301 6.44602 10.7438 6.23468 10.5915 6.07499C10.5123 5.99912 10.4188 5.93965 10.3165 5.89999ZM9.99984 1.66666C8.35166 1.66666 6.7405 2.1554 5.37009 3.07108C3.99968 3.98675 2.93158 5.28824 2.30084 6.81096C1.67011 8.33368 1.50509 10.0092 1.82663 11.6257C2.14817 13.2423 2.94185 14.7271 4.10728 15.8925C5.27272 17.058 6.75758 17.8517 8.37409 18.1732C9.9906 18.4947 11.6662 18.3297 13.1889 17.699C14.7116 17.0683 16.0131 16.0002 16.9288 14.6297C17.8444 13.2593 18.3332 11.6482 18.3332 9.99999C18.3332 8.90564 18.1176 7.82201 17.6988 6.81096C17.28 5.79991 16.6662 4.88125 15.8924 4.10743C15.1186 3.33361 14.1999 2.71978 13.1889 2.30099C12.1778 1.8822 11.0942 1.66666 9.99984 1.66666ZM9.99984 16.6667C8.6813 16.6667 7.39237 16.2757 6.29604 15.5431C5.19971 14.8106 4.34523 13.7694 3.84064 12.5512C3.33606 11.333 3.20404 9.99259 3.46127 8.69939C3.71851 7.40618 4.35345 6.2183 5.2858 5.28594C6.21815 4.35359 7.40603 3.71866 8.69924 3.46142C9.99245 3.20419 11.3329 3.33621 12.5511 3.84079C13.7692 4.34538 14.8104 5.19986 15.543 6.29619C16.2755 7.39252 16.6665 8.68145 16.6665 9.99999C16.6665 11.7681 15.9641 13.4638 14.7139 14.714C13.4636 15.9643 11.768 16.6667 9.99984 16.6667Z" fill="#E3C83A"/>
</svg>
