<svg width="14" height="9" viewBox="0 0 14 9" fill="none" xmlns="http://www.w3.org/2000/svg">
<path d="M0.292989 7.793C0.480516 7.98047 0.734825 8.08578 0.99999 8.08578C1.26515 8.08578 1.51946 7.98047 1.70699 7.793L6.29299 3.207C6.48312 3.02451 6.73645 2.92261 6.99999 2.92261C7.26353 2.92261 7.51686 3.02451 7.70699 3.207L12.293 7.793C12.4816 7.97516 12.7342 8.07595 12.9964 8.07367C13.2586 8.07139 13.5094 7.96623 13.6948 7.78082C13.8802 7.59541 13.9854 7.3446 13.9877 7.0824C13.9899 6.8202 13.8891 6.5676 13.707 6.379L9.12199 1.793C8.84341 1.51437 8.51267 1.29334 8.14866 1.14255C7.78465 0.991753 7.3945 0.914139 7.00049 0.914139C6.60648 0.914139 6.21633 0.991753 5.85232 1.14255C5.48831 1.29334 5.15757 1.51437 4.87899 1.793L0.292989 6.379C0.105517 6.56653 0.000203133 6.82083 0.000203133 7.086C0.000203133 7.35116 0.105517 7.60547 0.292989 7.793Z" fill="#E0E0E0"/>
</svg>
